<svg version="1.1" id="Layer_1" xmlns="http://www.w3.org/2000/svg" xmlns:xlink="http://www.w3.org/1999/xlink" x="0px" y="0px"
	 width="100%" viewBox="0 0 1024 768" enable-background="new 0 0 1024 768" xml:space="preserve">
<path fill="#000000" opacity="1.000000" stroke="none" 
	d="
M554.961060,347.124329 
	C544.398682,347.841553 535.626770,352.058472 527.303040,357.510834 
	C525.520813,358.678253 523.864319,361.230591 521.287598,358.765594 
	C518.826782,356.411591 521.114563,354.551697 521.976990,352.540314 
	C523.920959,348.006653 527.091553,344.597748 530.806641,341.318878 
	C548.339661,325.844543 555.398071,299.572144 542.190063,278.491486 
	C539.955688,274.925323 540.359253,271.097321 541.142395,267.352448 
	C545.139343,248.240097 561.205505,234.473373 580.656189,232.494476 
	C590.824768,231.459915 600.969971,232.222839 611.103149,231.646698 
	C621.279175,231.068130 631.255859,229.558044 640.550354,224.862289 
	C646.824280,221.692627 651.551270,216.971237 655.090271,211.259247 
	C657.219238,211.860229 656.903076,213.121964 656.790466,214.247208 
	C655.531311,226.831711 646.392822,237.510986 634.168945,241.477051 
	C623.349487,244.987442 612.233521,245.032684 601.081787,245.424591 
	C591.385681,245.765350 581.801636,247.168182 572.945496,251.409348 
	C562.410034,256.454712 556.299622,264.925262 554.586243,276.509521 
	C554.312744,278.358673 554.708801,280.140564 555.494263,282.420746 
	C556.585876,279.257233 557.411499,276.481110 558.488098,273.806030 
	C566.000183,255.140106 583.474365,245.696609 603.648682,249.209000 
	C613.648987,250.950089 623.360107,254.041321 633.494934,255.235291 
	C636.846069,255.630096 640.083069,254.633316 643.330139,255.147247 
	C644.102783,257.404755 642.259583,257.869049 641.172241,258.615845 
	C629.909180,266.351624 617.729980,268.413177 604.553345,264.514343 
	C597.344421,262.381317 590.064880,260.635864 582.450012,262.318024 
	C577.757324,263.354584 573.816040,265.493622 570.478577,269.968323 
	C573.147522,270.383179 574.787476,269.261993 576.458252,268.594543 
	C583.315735,265.855072 590.137146,266.010620 596.894043,268.808990 
	C601.355835,270.656860 605.661255,272.897644 610.167542,274.620056 
	C623.389832,279.673920 635.914124,279.146637 647.143188,269.486664 
	C647.735901,268.976746 648.543701,268.716888 649.306519,268.311310 
	C650.718811,270.575714 649.092896,272.014404 648.210449,273.413086 
	C641.867004,283.468018 632.112854,287.385437 620.791870,288.291351 
	C611.691528,289.019592 602.915649,286.995911 594.151062,284.951965 
	C591.883789,284.423248 589.630493,283.765472 587.331909,283.451569 
	C570.970398,281.217133 562.954712,287.247040 560.303101,303.750885 
	C559.176819,310.760651 558.410217,317.861237 553.848206,324.633514 
	C557.912842,322.174133 560.236267,319.139954 562.794312,316.338898 
	C571.551392,306.750000 579.758362,306.523254 589.007385,315.553833 
	C590.318359,316.833862 591.608154,318.141541 592.989197,319.342804 
	C598.614563,324.236084 604.742493,326.109802 611.793091,322.402069 
	C612.944336,321.796722 614.201843,321.393463 615.502014,320.859070 
	C615.613403,325.112091 612.344849,328.958282 607.470520,330.831055 
	C602.512024,332.736145 597.638245,332.154785 592.849670,330.398285 
	C589.256653,329.080383 585.794617,327.410309 582.232971,326.001404 
	C567.506592,320.176056 555.801514,324.827637 547.084534,340.176086 
	C549.601257,339.465607 551.437500,338.094757 553.150574,336.645142 
	C561.283752,329.763153 569.752441,329.916901 578.528076,335.255066 
	C583.466736,338.259216 588.657532,340.308014 594.605347,339.668304 
	C597.902832,339.313629 600.658936,337.389679 604.922913,335.401062 
	C602.580994,341.866882 598.676208,344.744293 594.222046,346.908600 
	C587.478699,350.185303 580.310852,349.948975 573.185242,348.590912 
	C567.289368,347.467163 561.460754,346.023010 554.961060,347.124329 
z"/>
<path fill="#000000" opacity="1.000000" stroke="none" 
	d="
M393.010834,265.312805 
	C389.443298,263.761993 385.632050,263.307281 382.987823,258.846161 
	C396.100098,260.192749 406.252899,253.108963 417.608398,250.367096 
	C437.456177,245.574707 452.844910,253.371002 460.463470,272.395050 
	C461.242493,274.340271 462.049561,276.274292 463.218964,278.038879 
	C464.455200,267.286591 459.837891,259.262848 451.460846,253.033722 
	C443.213562,246.901031 433.842346,244.767944 423.697327,245.098846 
	C413.178986,245.441925 402.721436,245.112061 392.666229,241.331390 
	C379.531464,236.392838 371.626465,227.169174 369.245453,213.287933 
	C369.106628,212.478592 368.834534,211.664169 369.667358,211.039917 
	C370.715973,210.778000 371.162292,211.527496 371.588867,212.235687 
	C382.346039,230.096222 399.188171,233.795288 418.233765,232.157532 
	C432.406158,230.938843 446.230865,231.053986 458.390015,240.074753 
	C469.349091,248.205139 475.629944,259.235962 478.876221,272.254883 
	C479.323242,274.047668 478.998169,275.474945 477.876892,276.893982 
	C467.772949,289.680695 467.245544,303.786469 472.702240,318.414886 
	C476.279938,328.006104 481.456818,336.780853 488.945435,343.928528 
	C491.503662,346.370239 492.624115,349.394714 493.742920,352.530151 
	C494.233856,353.906067 494.128052,355.133179 493.075592,356.218750 
	C491.750427,357.585602 490.372284,357.091461 488.976227,356.365997 
	C486.316650,354.983887 483.701233,353.506378 480.986145,352.243317 
	C467.892120,346.152069 454.287170,346.211914 440.389252,348.685333 
	C430.843109,350.384247 421.802277,348.770386 413.812714,342.944183 
	C412.106018,341.699585 410.342224,340.309570 410.215973,337.917755 
	C410.825012,337.193390 411.515839,337.358521 412.058411,337.706696 
	C419.678558,342.596191 427.299072,341.245209 434.898956,337.709778 
	C437.010773,336.727325 439.022278,335.531677 441.106384,334.486938 
	C451.074371,329.490112 458.875824,330.480072 467.286652,337.772125 
	C468.281311,338.634552 469.311523,339.456024 470.741272,340.641418 
	C463.013000,327.039764 452.587189,320.887573 437.074921,326.776947 
	C431.185577,329.012878 425.069366,330.763031 418.566528,330.301361 
	C411.631439,329.808990 406.177155,325.711517 404.249725,319.280273 
	C405.552216,318.274017 406.434021,319.408417 407.322754,319.985809 
	C414.169434,324.434052 420.590729,323.185699 426.772583,318.607361 
	C429.315125,316.724335 431.710846,314.625305 434.350342,312.894348 
	C442.069092,307.832520 449.107483,308.728027 455.359650,315.474426 
	C457.710693,318.011353 459.934723,320.666046 462.561249,323.088043 
	C458.902924,317.132874 458.802979,310.422577 457.977173,303.897583 
	C455.962036,287.975342 445.107422,280.313995 429.329468,283.977356 
	C419.323639,286.300537 409.700989,290.317474 399.048431,289.411499 
	C388.666565,288.528534 380.048676,282.164124 377.154785,272.488800 
	C376.785400,271.253815 376.151917,269.993958 377.137604,268.670685 
	C378.810211,268.624969 379.183044,270.182648 379.992950,271.092102 
	C386.742462,278.671021 396.833099,281.360016 406.408569,277.650055 
	C411.987701,275.488434 417.401093,272.870789 422.792297,270.258606 
	C432.563904,265.524017 442.214630,264.865509 452.070587,270.999176 
	C447.346130,263.702667 438.833496,260.705811 429.673218,262.871704 
	C424.335632,264.133789 419.087677,265.691101 413.648041,266.623596 
	C406.729706,267.809692 400.067017,267.217804 393.010834,265.312805 
z"/>
<path fill="#000000" opacity="1.000000" stroke="none" 
	d="
M515.877502,340.107117 
	C508.251495,340.998901 511.933594,334.651428 509.824310,331.181152 
	C507.166138,338.861633 506.694092,347.884735 497.184082,351.827789 
	C493.931854,346.766632 493.542175,341.131500 493.872162,335.321747 
	C493.996826,333.126953 495.869293,333.854431 497.249634,333.489807 
	C492.199463,328.164978 487.285461,322.976807 482.363373,317.796356 
	C479.078156,314.338623 477.340332,310.500702 478.644989,305.563843 
	C479.663300,301.710510 480.601166,297.785736 481.017517,293.833954 
	C481.903442,285.425720 486.803650,280.668152 494.456757,278.349304 
	C498.838348,277.021698 502.078217,273.634460 506.187378,271.729462 
	C501.661987,268.397400 498.568756,263.578918 497.296539,257.670197 
	C496.039032,251.829636 497.378174,246.633423 502.106293,242.847702 
	C505.946289,239.773071 510.443787,239.513474 514.786438,241.820999 
	C520.345093,244.774612 521.898987,249.827545 521.458740,255.761566 
	C520.956543,262.530212 517.277649,267.513245 512.239624,271.952972 
	C516.089172,271.502777 515.973328,275.947205 519.045166,276.783997 
	C522.681335,277.774506 525.967224,279.998566 529.474976,281.527191 
	C533.288086,283.188873 535.626343,285.967926 536.505859,290.001587 
	C537.710205,295.525238 538.971619,301.037842 540.070435,306.582581 
	C540.868958,310.611908 539.661255,314.141388 536.920654,317.184021 
	C531.795715,322.873657 526.692261,328.582642 521.144165,334.783569 
	C519.098145,336.891418 517.487854,338.499268 515.877502,340.107117 
M498.952026,322.579163 
	C500.723419,325.215729 502.821960,327.376984 505.965881,327.899902 
	C509.050629,323.579315 507.328827,320.669006 504.244171,317.650970 
	C498.845917,312.369293 498.737030,309.341644 503.280548,303.412292 
	C504.787567,301.445618 506.618927,299.730804 508.237000,297.845093 
	C510.256378,295.491638 512.273010,293.113190 512.618713,289.458862 
	C506.476654,294.699280 502.084106,301.065613 496.980042,306.570251 
	C494.274292,304.836700 494.427795,301.111084 490.909576,300.905151 
	C488.826691,305.091919 488.356262,308.993408 491.633057,312.888184 
	C494.083466,315.800720 496.234802,318.964905 498.952026,322.579163 
M518.590576,324.307098 
	C521.388000,320.583252 524.060730,316.756866 527.015381,313.162292 
	C530.467041,308.962982 529.266968,305.007629 527.058777,300.605988 
	C521.483765,304.325317 522.776550,311.319000 519.176880,315.946503 
	C515.279053,313.569763 512.980042,310.189026 510.301819,306.529633 
	C509.947906,308.837341 509.689117,310.689209 510.795166,311.974731 
	C514.062012,315.771729 516.832275,319.799530 518.590576,324.307098 
z"/>
<path fill="#000000" opacity="1.000000" stroke="none" 
	d="
M515.655579,340.299072 
	C517.487854,338.499268 519.098145,336.891418 520.964966,335.039703 
	C522.296387,334.471558 523.371277,334.147247 525.008362,333.653351 
	C525.430054,339.333038 523.732666,344.055359 521.135864,348.497772 
	C517.579529,354.581757 512.530212,359.503754 508.049408,364.865601 
	C497.888092,377.024963 490.921906,390.110229 493.915405,406.848724 
	C496.194977,419.595306 503.875366,427.787018 514.315491,434.089539 
	C526.898438,424.206818 530.044128,407.202515 522.418518,391.386780 
	C519.929504,386.224518 516.703430,381.535492 512.319946,377.863434 
	C508.835907,374.944916 508.511414,372.133820 510.983582,368.456543 
	C517.535278,358.710876 517.346436,358.802643 524.840515,366.476562 
	C545.080872,387.202606 547.574280,419.501587 524.161987,440.806732 
	C523.022705,441.939117 522.341064,442.585938 521.659363,443.232758 
	C514.037476,448.017303 506.228088,452.398926 497.270355,454.196411 
	C486.070007,456.443939 475.109222,455.699585 464.471680,451.379700 
	C463.452667,450.965912 462.217133,450.732178 461.547821,448.560150 
	C478.448151,451.841522 493.868591,449.077332 508.256134,439.043427 
	C502.120728,435.052155 496.194427,431.687683 491.669678,426.497528 
	C475.034485,407.415802 475.668793,380.911560 493.360992,361.747406 
	C497.303375,357.477081 501.578552,353.514954 505.666748,349.377594 
	C506.710938,348.320801 508.223450,347.261505 508.489685,345.987823 
	C509.315308,342.037994 511.965088,340.856873 515.655579,340.299072 
z"/>
<path fill="#000000" opacity="1.000000" stroke="none" 
	d="
M584.674011,517.000610 
	C584.679626,511.677002 584.753418,506.852051 584.665588,502.029999 
	C584.614380,499.220001 585.505432,497.648804 588.621582,497.689270 
	C598.599365,497.818909 608.605896,497.392487 618.550293,498.007202 
	C631.461243,498.805298 641.377869,508.419220 643.983337,521.666565 
	C645.480408,529.279114 645.373169,536.880615 643.268555,544.357483 
	C639.765747,556.801392 630.011169,564.505005 617.219177,565.444397 
	C608.241699,566.103699 599.268799,565.809998 590.291077,565.832642 
	C586.212280,565.842896 584.494141,564.371521 584.579956,559.914368 
	C584.852112,545.781067 584.676697,531.639038 584.674011,517.000610 
M600.333801,529.501038 
	C600.333801,536.926453 600.333801,544.351868 600.333801,551.865112 
	C605.977539,551.865112 610.937256,552.100159 615.864990,551.803589 
	C621.585022,551.459351 625.298584,548.094910 627.394836,542.876892 
	C634.682800,524.736206 625.469299,510.967010 606.226440,511.224518 
	C605.727783,511.231201 605.226013,511.272125 604.731079,511.231415 
	C601.598755,510.973694 600.155212,512.234619 600.291931,515.539001 
	C600.470459,519.853210 600.335144,524.180420 600.333801,529.501038 
z"/>
<path fill="#000000" opacity="1.000000" stroke="none" 
	d="
M153.920013,551.984924 
	C153.922745,535.663879 154.038254,519.839233 153.859131,504.017914 
	C153.807236,499.434052 155.031509,497.385742 160.057632,497.608887 
	C170.112488,498.055267 170.078751,496.089355 170.060791,507.677704 
	C170.054840,511.508575 170.147018,515.342407 170.023056,519.169373 
	C169.921722,522.297852 171.065567,523.732605 174.380829,523.631409 
	C180.033417,523.458862 185.696915,523.486572 191.351883,523.610474 
	C194.535995,523.680176 195.886047,522.431519 195.820847,519.201294 
	C195.706573,513.540894 195.889145,507.874908 195.807678,502.213257 
	C195.762817,499.096832 196.978699,497.819519 200.208252,497.662842 
	C211.363647,497.121643 211.623810,497.018250 211.778137,508.042969 
	C212.022888,525.528564 211.808960,543.020203 211.939331,560.508118 
	C211.967987,564.355225 210.461349,565.756531 206.667358,565.903748 
	C196.138901,566.312256 195.842712,566.141296 195.833191,555.477661 
	C195.828873,550.647400 195.753281,545.816467 195.818481,540.987244 
	C195.855484,538.247559 194.652740,537.046204 191.924698,537.078125 
	C186.095810,537.146240 180.264038,537.210022 174.436935,537.096619 
	C171.208832,537.033752 169.981918,538.390869 170.037170,541.569763 
	C170.150040,548.063416 169.982635,554.561707 170.067947,561.056274 
	C170.108215,564.122070 169.052277,565.361389 165.760818,565.623169 
	C154.221161,566.541321 153.915787,566.403687 153.920624,554.981140 
	C153.920975,554.148254 153.920609,553.315430 153.920013,551.984924 
z"/>
<path fill="#000000" opacity="1.000000" stroke="none" 
	d="
M718.223328,504.755371 
	C732.658630,520.370667 732.646484,545.051819 718.053345,558.725891 
	C707.956299,568.187012 695.733887,569.579163 683.099976,565.184326 
	C671.192932,561.042419 664.897644,551.808167 662.657837,539.576172 
	C661.274719,532.022400 661.689026,524.564270 664.358582,517.444946 
	C672.641846,495.354980 699.342590,488.988464 718.223328,504.755371 
M678.901672,522.640686 
	C677.611633,527.560303 677.891418,532.567261 678.278137,537.538574 
	C678.945984,546.124023 685.073975,552.859192 692.709900,553.681824 
	C702.182922,554.702332 708.841370,550.356995 711.681458,541.163147 
	C713.442810,535.461609 713.356140,529.628662 712.002625,523.898499 
	C709.825500,514.681030 704.399536,509.980804 695.883057,509.493866 
	C688.164734,509.052582 682.568604,513.195801 678.901672,522.640686 
z"/>
<path fill="#000000" opacity="1.000000" stroke="none" 
	d="
M234.011017,554.949707 
	C234.003922,537.626587 234.103195,520.793030 233.917007,503.962738 
	C233.865555,499.310913 235.262421,497.481018 240.199341,497.592529 
	C253.358459,497.889709 266.534821,497.924774 279.691711,497.580841 
	C285.211548,497.436554 285.466644,500.254486 285.393829,504.397369 
	C285.324921,508.317505 285.649719,511.630310 279.884857,511.334534 
	C271.740204,510.916656 263.554138,511.378723 255.393509,511.167114 
	C251.562485,511.067719 249.713943,512.257874 250.164001,516.268372 
	C250.311752,517.585022 250.273804,518.939026 250.170288,520.264160 
	C249.918900,523.482056 251.313431,524.723572 254.551743,524.665527 
	C262.215393,524.528320 269.891541,524.845276 277.546448,524.554199 
	C282.309082,524.373108 282.514709,526.994995 282.420929,530.524292 
	C282.329651,533.959534 282.831482,537.315552 277.582825,537.166565 
	C269.923218,536.949097 262.251129,537.211853 254.586746,537.103149 
	C251.390396,537.057800 250.018387,538.272461 250.174805,541.515137 
	C250.333542,544.806213 250.209869,548.111023 250.209869,551.618896 
	C255.599335,552.561096 260.570343,551.963867 265.504272,552.076538 
	C269.668365,552.171631 273.836670,552.066284 278.002960,552.084412 
	C285.947296,552.118958 288.382507,555.572510 286.157104,563.332886 
	C285.460632,565.761658 283.601868,565.788147 281.837463,565.791748 
	C268.007141,565.819824 254.175797,565.658691 240.346619,565.774048 
	C235.419144,565.815125 233.254745,563.913025 233.978088,558.936951 
	C234.144196,557.794067 234.007141,556.607178 234.011017,554.949707 
z"/>
<path fill="#000000" opacity="1.000000" stroke="none" 
	d="
M822.815063,565.418579 
	C819.629883,564.784729 819.888794,562.573792 819.885986,560.616455 
	C819.858521,541.294128 819.912720,521.971619 819.825623,502.649658 
	C819.809448,499.053802 821.104675,497.614899 824.809021,497.650421 
	C838.633179,497.783142 852.460205,497.769287 866.284363,497.631531 
	C869.875732,497.595734 871.640991,498.767853 871.304810,502.504822 
	C871.200745,503.661255 871.198853,504.844360 871.311279,505.999603 
	C871.685364,509.843384 870.101929,511.368835 866.153931,511.279297 
	C857.663330,511.086761 849.163330,511.339783 840.670593,511.200836 
	C837.222229,511.144409 835.720703,512.429138 836.025696,515.884949 
	C836.157104,517.373413 836.160339,518.887634 836.059692,520.379150 
	C835.835205,523.704285 837.491089,524.705017 840.596191,524.659058 
	C848.256653,524.545349 855.926819,524.829651 863.579895,524.568848 
	C868.022400,524.417480 868.431702,526.838318 868.287170,530.206360 
	C868.147583,533.457947 869.120117,537.199097 863.731445,537.113403 
	C856.071411,536.991516 848.405945,537.203918 840.745972,537.079712 
	C837.349182,537.024658 835.958130,538.260986 836.026062,541.747131 
	C836.276123,554.592163 834.571899,551.862488 846.152710,552.074768 
	C852.979919,552.199890 859.813599,552.219666 866.639587,552.068970 
	C870.696411,551.979492 872.531189,553.599121 872.121460,557.695618 
	C871.772949,561.180420 873.663818,565.748108 867.208374,565.764099 
	C852.556702,565.800354 837.904663,566.290161 822.815063,565.418579 
z"/>
<path fill="#000000" opacity="1.000000" stroke="none" 
	d="
M504.648071,517.000610 
	C504.651733,511.838043 504.766296,507.171844 504.620422,502.513824 
	C504.516937,499.209625 505.612762,497.643372 509.175964,497.685638 
	C522.009827,497.837799 520.158752,496.529480 520.306274,508.427582 
	C520.341370,511.258057 520.299316,514.089355 520.307617,516.920288 
	C520.325806,523.172791 520.629944,523.512634 526.673828,523.569336 
	C531.502686,523.614624 536.343994,523.379944 541.157837,523.654907 
	C545.412354,523.897949 546.768127,522.048035 546.627136,518.062500 
	C546.444641,512.906860 546.691650,507.737091 546.560974,502.578278 
	C546.479004,499.341461 547.425415,497.648804 551.047607,497.682770 
	C564.047729,497.804810 562.146118,496.616211 562.211304,508.377136 
	C562.305359,525.362244 562.090088,542.350281 562.335938,559.332336 
	C562.403625,564.008911 561.294312,565.791199 556.263733,565.552795 
	C546.577759,565.093689 546.583984,565.381409 546.594177,555.734192 
	C546.599243,550.906128 546.444824,546.077209 546.498840,541.250183 
	C546.534973,538.025574 545.097595,536.913086 541.929077,537.024841 
	C536.273743,537.224182 530.604431,537.223572 524.946594,537.081238 
	C521.555176,536.995972 520.144958,538.212341 520.252319,541.727234 
	C520.440369,547.882690 520.127747,554.054077 520.342529,560.207764 
	C520.474304,563.982788 519.184692,565.874146 515.284363,565.661865 
	C514.625854,565.625977 513.958984,565.784424 513.294189,565.814331 
	C505.037964,566.186646 504.655609,565.818604 504.652893,557.466614 
	C504.648560,544.144531 504.649170,530.822510 504.648071,517.000610 
z"/>
<path fill="#000000" opacity="1.000000" stroke="none" 
	d="
M781.495850,525.281860 
	C784.847290,526.483887 787.876831,527.422363 790.759705,528.693359 
	C797.427856,531.633118 801.272766,536.680664 801.566650,544.114563 
	C801.864014,551.635437 799.211914,557.864990 792.901001,562.137451 
	C781.971680,569.536560 763.305603,569.032166 752.734497,561.146240 
	C747.801697,557.466492 745.074829,552.518372 744.627319,546.319458 
	C744.449341,543.853760 745.205444,542.524353 747.901367,542.590271 
	C749.891846,542.639038 751.905090,542.550720 753.879272,542.297791 
	C757.387634,541.848389 759.227539,543.005859 760.385864,546.649048 
	C763.049377,555.026245 778.380127,557.902588 784.546509,551.434692 
	C787.437988,548.401733 787.047791,544.618713 783.393982,542.061279 
	C779.493530,539.331055 774.929993,538.259766 770.352722,537.315552 
	C765.616394,536.338623 760.937439,535.197205 756.642151,532.868774 
	C743.576416,525.785950 743.100891,508.539825 755.752502,500.644287 
	C766.947876,493.657532 784.240234,494.757965 793.129333,503.062836 
	C794.215637,504.077759 795.316711,505.168152 796.074097,506.426361 
	C798.142761,509.863342 801.042786,514.227600 798.525391,517.454102 
	C795.774658,520.979553 790.465515,518.944275 786.259521,518.756714 
	C784.269531,518.668091 784.043457,516.656921 783.424622,515.092163 
	C780.940063,508.809631 768.431152,506.459717 763.737183,511.327271 
	C760.798157,514.375000 761.687317,518.832031 765.811768,520.667603 
	C770.693237,522.840027 775.924011,523.953491 781.495850,525.281860 
z"/>
<path fill="#000000" opacity="1.000000" stroke="none" 
	d="
M351.809784,529.267944 
	C356.266754,541.249084 360.568176,552.874207 365.021515,564.909912 
	C359.549042,566.453796 354.932861,566.120667 350.416229,565.199829 
	C347.659821,564.637878 347.686432,561.653748 346.992737,559.548584 
	C344.184082,551.025391 344.241882,551.006348 335.331970,551.047546 
	C334.832581,551.049805 334.323730,551.118958 333.835236,551.047668 
	C324.313385,549.658691 316.773407,551.309082 315.336975,562.765747 
	C315.071869,564.880249 313.388977,565.700867 311.340790,565.810059 
	C307.366302,566.021790 303.449524,565.697815 299.246063,565.051758 
	C299.609039,560.397583 301.761536,556.750854 303.179474,552.938232 
	C309.326385,536.409973 315.802429,520.003845 321.902039,503.458618 
	C323.438568,499.290771 325.451385,497.349457 330.189087,497.613098 
	C340.758942,498.201294 339.242004,495.631683 343.416473,506.952637 
	C346.121124,514.287659 348.905548,521.593201 351.809784,529.267944 
M324.815338,536.748474 
	C324.745178,537.694092 325.107239,538.474304 326.081879,538.522339 
	C330.327301,538.731995 334.588776,539.117615 339.418274,538.114990 
	C337.052979,531.217834 334.791870,524.624512 332.530762,518.031189 
	C332.131042,518.017090 331.731323,518.002991 331.331604,517.988892 
	C329.222412,524.007812 327.113190,530.026733 324.815338,536.748474 
z"/>
<path fill="#000000" opacity="1.000000" stroke="none" 
	d="
M451.094360,534.000000 
	C451.103638,528.170471 450.896332,522.828979 451.187683,517.514954 
	C451.442474,512.866211 449.958527,510.656982 444.997894,511.141510 
	C441.864716,511.447571 438.673065,511.100128 435.511261,511.183838 
	C432.297974,511.268951 430.961884,509.690735 431.031433,506.621613 
	C431.069214,504.957031 431.052856,503.291260 431.067780,501.626068 
	C431.091156,499.010590 432.242218,497.700287 435.030304,497.708740 
	C451.018768,497.757324 467.007568,497.746063 482.996094,497.694794 
	C485.851990,497.685608 487.422760,498.714111 487.289215,501.764923 
	C487.216431,503.427002 487.203033,505.099762 487.301270,506.759491 
	C487.490021,509.948883 486.067871,511.315948 482.873016,511.213806 
	C479.379669,511.102112 475.866425,511.412048 472.384918,511.184662 
	C468.507904,510.931396 467.117920,512.354858 467.168304,516.320984 
	C467.350128,530.641846 467.258667,544.966553 467.222626,559.289673 
	C467.206543,565.674316 466.910065,565.912964 460.802795,565.559082 
	C451.105194,564.997131 451.106384,564.997131 451.104462,554.985596 
	C451.103149,548.157043 451.097961,541.328552 451.094360,534.000000 
z"/>
<path fill="#000000" opacity="1.000000" stroke="none" 
	d="
M404.583496,552.139038 
	C411.510956,552.138611 418.004578,552.248718 424.493744,552.124390 
	C429.197052,552.034302 429.437714,554.980530 429.198975,558.424927 
	C428.972565,561.691589 430.384491,565.885864 424.637177,565.855103 
	C411.820892,565.786499 399.003937,565.759094 386.187744,565.820862 
	C381.952362,565.841248 380.538696,564.099854 380.587677,559.784729 
	C380.801300,540.977112 380.785187,522.164551 380.591156,503.356506 
	C380.545990,498.977722 381.958740,497.523743 386.333069,497.643280 
	C397.509338,497.948730 396.292755,496.583832 396.331696,507.474396 
	C396.378113,520.458191 396.315704,533.442261 396.349548,546.426086 
	C396.354248,548.222778 395.965759,550.083801 396.853027,551.895447 
	C399.222931,553.192139 401.713470,552.065735 404.583496,552.139038 
z"/>
<path fill="#000000" opacity="1.000000" stroke="none" 
	d="
M442.920288,290.716370 
	C451.206146,294.180054 456.121613,299.689697 454.498505,311.003265 
	C453.299591,311.427277 452.608643,310.591827 451.964661,309.869781 
	C445.314056,302.413116 437.010223,301.935577 428.129578,304.344879 
	C421.113800,306.248230 414.562469,309.953766 406.916809,309.332306 
	C400.381561,308.801056 395.741455,305.475403 394.453094,299.510101 
	C405.341278,305.215118 413.683258,300.420624 421.813934,293.804230 
	C427.962860,288.800537 435.067993,288.019531 442.920288,290.716370 
z"/>
<path fill="#000000" opacity="1.000000" stroke="none" 
	d="
M572.153931,291.899292 
	C582.336487,286.775940 591.004761,288.538544 598.948730,295.988861 
	C607.627258,304.128113 611.828125,304.337677 624.192993,297.956024 
	C624.791687,303.938599 618.580444,309.752136 611.103760,310.226807 
	C605.247131,310.598663 600.058472,308.257416 594.782227,306.254791 
	C591.528625,305.019897 588.375610,303.522522 584.799805,303.271423 
	C575.489563,302.617523 574.442200,302.922333 563.793091,310.514832 
	C563.476318,302.595459 565.634583,296.519440 572.153931,291.899292 
z"/>
<path fill="#000000" opacity="1.000000" stroke="none" 
	d="
M500.985474,407.993622 
	C498.409454,407.635254 495.659882,408.358459 495.569031,404.670166 
	C495.479553,401.036804 497.756622,400.605103 500.492065,400.753510 
	C503.852600,400.935791 504.908386,399.161316 504.721252,396.128754 
	C504.578766,393.819885 505.352081,392.237030 508.004456,392.154816 
	C510.670471,392.072174 512.233643,393.257843 512.080261,395.959076 
	C511.866577,399.722778 513.642212,401.008484 517.176453,400.790253 
	C519.566711,400.642639 520.260254,402.213348 520.279297,404.351349 
	C520.298035,406.452820 519.728760,408.149567 517.318420,408.032043 
	C513.512695,407.846497 511.824249,409.378937 511.989899,413.270508 
	C512.089661,415.613831 510.378510,416.256226 508.260864,416.231781 
	C506.048401,416.206268 504.797974,415.302704 504.763306,412.992645 
	C504.727448,410.603516 504.814911,408.120575 500.985474,407.993622 
z"/>
<path fill="#000000" opacity="1.000000" stroke="none" 
	d="
M521.798096,443.613403 
	C522.341064,442.585938 523.022705,441.939117 523.960205,441.044617 
	C526.177368,439.980377 527.976257,439.022491 530.357910,439.594238 
	C537.708740,441.358856 545.134338,441.321625 552.558350,439.872253 
	C553.156128,439.755524 553.818359,439.969360 555.455383,440.125244 
	C551.549988,443.417206 547.564392,444.060333 543.681641,444.658569 
	C536.416138,445.778015 529.079956,447.522156 521.798096,443.613403 
z"/>
<path fill="#000000" opacity="1.000000" stroke="none" 
	d="
M499.916077,320.711884 
	C499.965149,319.261749 499.390076,317.862030 500.860748,317.376465 
	C501.933624,317.022278 502.764709,317.839447 503.332184,318.633392 
	C504.594330,320.399109 505.718842,322.250122 504.113312,324.531555 
	C501.581207,324.750336 500.865021,322.816650 499.916077,320.711884 
z"/>
</svg>